<?xml version="1.0" encoding="utf-8"?>
<!-- Generator: Adobe Illustrator 16.0.0, SVG Export Plug-In . SVG Version: 6.00 Build 0)  -->
<!DOCTYPE svg PUBLIC "-//W3C//DTD SVG 1.1//EN" "http://www.w3.org/Graphics/SVG/1.1/DTD/svg11.dtd">
<svg version="1.1" id="Layer_1" xmlns="http://www.w3.org/2000/svg" xmlns:xlink="http://www.w3.org/1999/xlink" x="0px" y="0px"
	 width="128px" height="128px" viewBox="0 0 128 128" enable-background="new 0 0 128 128" xml:space="preserve">
<g>
	<g>
		<path fill="#282D33" d="M60.891,116.37c-0.307,0-0.611-0.004-0.915-0.012l0.096-4.007c1.233,0.028,2.494-0.012,3.721-0.126
			l0.373,3.99C63.085,116.317,61.983,116.369,60.891,116.37z M55.789,115.998c-1.383-0.205-2.767-0.495-4.111-0.864l1.061-3.865
			c1.189,0.326,2.412,0.583,3.636,0.764L55.789,115.998z M68.316,115.572l-0.854-3.917c1.207-0.263,2.408-0.604,3.572-1.012
			l1.326,3.784C71.043,114.89,69.684,115.273,68.316,115.572z M47.697,113.773c-1.292-0.532-2.564-1.149-3.782-1.836l1.966-3.494
			c1.077,0.607,2.202,1.153,3.343,1.623L47.697,113.773z M76.238,112.798l-1.779-3.592c1.105-0.547,2.189-1.169,3.221-1.847
			l2.201,3.351C78.715,111.477,77.488,112.18,76.238,112.798z M40.384,109.654c-1.125-0.83-2.21-1.736-3.225-2.694l2.752-2.914
			c0.897,0.847,1.856,1.647,2.851,2.381L40.384,109.654z M83.242,108.193l-2.592-3.058c0.943-0.799,1.844-1.663,2.68-2.568
			l2.947,2.716C85.33,106.312,84.311,107.29,83.242,108.193z M34.285,103.892c-0.892-1.078-1.725-2.22-2.476-3.396l3.378-2.159
			c0.663,1.039,1.398,2.048,2.186,2.999L34.285,103.892z M88.934,102.026l-3.254-2.341c0.719-0.999,1.383-2.056,1.973-3.141
			l3.521,1.919C90.502,99.693,89.748,100.893,88.934,102.026z M29.77,96.818c-0.601-1.263-1.129-2.576-1.568-3.905l3.806-1.258
			c0.387,1.17,0.852,2.328,1.381,3.44L29.77,96.818z M92.951,94.65l-3.73-1.466c0.449-1.146,0.832-2.333,1.137-3.531l3.885,0.988
			C93.896,92.002,93.463,93.351,92.951,94.65z M27.134,88.84c-0.268-1.366-0.454-2.77-0.551-4.17l3.999-0.279
			c0.086,1.235,0.25,2.474,0.486,3.679L27.134,88.84z M95.021,86.505l-3.979-0.493c0.152-1.223,0.229-2.469,0.229-3.703h4.01
			C95.281,83.707,95.193,85.119,95.021,86.505z M91.27,81.851c-0.018-1.235-0.113-2.479-0.285-3.695l3.971-0.556
			c0.193,1.381,0.301,2.791,0.322,4.192L91.27,81.851z M30.553,80.682l-4.002-0.216c0.075-1.402,0.239-2.808,0.487-4.18l3.945,0.712
			C30.764,78.206,30.62,79.445,30.553,80.682z M90.242,74.523c-0.32-1.185-0.721-2.365-1.191-3.512l3.709-1.521
			c0.533,1.301,0.988,2.643,1.352,3.987L90.242,74.523z M31.868,73.397l-3.825-1.2c0.419-1.336,0.926-2.658,1.509-3.932l3.645,1.67
			C32.684,71.055,32.237,72.22,31.868,73.397z M87.434,67.679c-0.605-1.071-1.285-2.119-2.02-3.111l3.221-2.385
			c0.834,1.125,1.602,2.31,2.289,3.524L87.434,67.679z M34.948,66.663l-3.411-2.106c0.734-1.188,1.551-2.344,2.427-3.435l3.125,2.51
			C36.316,64.595,35.596,65.615,34.948,66.663z M83.025,61.727c-0.852-0.895-1.766-1.746-2.719-2.53l2.545-3.096
			c1.08,0.887,2.115,1.85,3.078,2.863L83.025,61.727z M39.588,60.885l-2.796-2.873c1-0.973,2.071-1.895,3.184-2.741l2.426,3.191
			C41.417,59.211,40.471,60.026,39.588,60.885z M77.299,57.015c-1.041-0.663-2.135-1.268-3.25-1.798l1.723-3.62
			c1.264,0.601,2.5,1.286,3.68,2.037L77.299,57.015z M45.489,56.402l-2.019-3.463c1.206-0.704,2.469-1.339,3.751-1.89l1.582,3.684
			C47.669,55.219,46.555,55.781,45.489,56.402z M70.604,53.828c-1.172-0.39-2.381-0.713-3.588-0.957l0.795-3.929
			c1.367,0.277,2.732,0.642,4.061,1.083L70.604,53.828z M52.298,53.479l-1.121-3.849c1.341-0.391,2.72-0.702,4.1-0.926l0.643,3.957
			C54.701,52.858,53.482,53.133,52.298,53.479z M63.335,52.355c-1.228-0.095-2.489-0.12-3.719-0.069l-0.162-4.006
			c1.388-0.056,2.808-0.031,4.194,0.079L63.335,52.355z"/>
	</g>
	<g>
		<path fill="none" stroke="#282D33" stroke-width="4" stroke-linejoin="round" d="M28.505,82.309"/>
	</g>
	<g>
		<path fill="#282D33" d="M60.889,116.37v-4.009c16.754,0,30.383-13.482,30.383-30.053h4.01
			C95.281,101.09,79.854,116.37,60.889,116.37z"/>
	</g>
	<g>
		<g>
			<path fill="#282D33" d="M63.404,84.5l-7.782-2.991c-2.45-1.54-3.692-3.376-3.692-5.457v-3.281c0-3.765,3.084-6.828,6.875-6.828
				h3.911c3.791,0,6.875,3.063,6.875,6.828v1.534h-4.008v-1.534c0-1.555-1.286-2.819-2.867-2.819h-3.911
				c-1.581,0-2.866,1.265-2.866,2.819v3.281c0,0.559,0.601,1.267,1.657,1.961l7.229,2.739L63.404,84.5z"/>
		</g>
		<g>
			<path fill="#282D33" d="M62.716,96.83h-3.911c-3.791,0-6.875-3.063-6.875-6.826v-1.533h4.009v1.533
				c0,1.553,1.285,2.817,2.866,2.817h3.911c1.581,0,2.866-1.265,2.866-2.817v-3.285c0-0.557-0.662-1.329-1.742-2.04l-6.89-2.624
				l1.427-3.747l7.438,2.876c2.471,1.553,3.777,3.467,3.777,5.535v3.285C69.592,93.768,66.508,96.83,62.716,96.83z"/>
		</g>
		<g>
			<rect x="59.052" y="61.344" fill="#282D33" width="4.009" height="7.204"/>
		</g>
		<g>
			<rect x="59.052" y="93.659" fill="#282D33" width="4.009" height="7.203"/>
		</g>
	</g>
	<g>
		<g>
			<path fill="#282D33" d="M60.975,128c-25.435,0-46.127-20.494-46.129-45.684c0-20.92,14.013-38.853,34.273-44.151V19.387h-2.87V0
				h29.456v19.387h-2.869v18.779c20.264,5.299,34.275,23.232,34.275,44.151C107.111,107.506,86.416,128,60.975,128z M50.258,15.378
				h2.87v25.963l-1.563,0.353c-19.259,4.35-32.71,21.055-32.71,40.622c0.001,22.979,18.896,41.675,42.121,41.675
				c23.23,0,42.128-18.695,42.128-41.675c0-19.565-13.453-36.27-32.713-40.622l-1.563-0.353V15.378h2.869V4.009H50.258V15.378z"/>
		</g>
	</g>
	<g>
		<rect x="50.646" y="14.811" fill="#282D33" width="12.751" height="4.009"/>
	</g>
	<g>
		<g>
			<g>
				<rect x="98.107" y="1.73" fill="#282D33" width="4.008" height="4.977"/>
			</g>
		</g>
		<g>
			<g>
				
					<rect x="87.509" y="7.731" transform="matrix(0.8682 0.4962 -0.4962 0.8682 16.6943 -43.3839)" fill="#282D33" width="5.017" height="4.008"/>
			</g>
		</g>
		<g>
			<g>
				
					<rect x="87.794" y="18.639" transform="matrix(0.496 0.8683 -0.8683 0.496 63.6225 -67.3171)" fill="#282D33" width="4.009" height="5.016"/>
			</g>
		</g>
		<g>
			<g>
				<rect x="97.665" y="24.551" fill="#282D33" width="4.01" height="4.977"/>
			</g>
		</g>
		<g>
			<g>
				
					<rect x="107.255" y="19.519" transform="matrix(0.8682 0.4963 -0.4963 0.8682 25.1536 -51.6371)" fill="#282D33" width="5.015" height="4.008"/>
			</g>
		</g>
		<g>
			<g>
				
					<rect x="107.979" y="7.606" transform="matrix(0.4956 0.8685 -0.8685 0.4956 64.2568 -90.4238)" fill="#282D33" width="4.008" height="5.013"/>
			</g>
		</g>
	</g>
	<g>
		<g>
			
				<rect x="26.628" y="19.461" transform="matrix(0.7035 0.7107 -0.7107 0.7035 27.0437 -12.608)" fill="#282D33" width="4.009" height="13.293"/>
		</g>
		<g>
			
				<rect x="21.986" y="24.103" transform="matrix(0.7107 0.7035 -0.7035 0.7107 26.6509 -12.5899)" fill="#282D33" width="13.293" height="4.009"/>
		</g>
	</g>
</g>
</svg>
